<?xml version="1.0" ?><svg style="enable-background:new 0 0 512 512;" version="1.1" viewBox="0 0 512 512" xml:space="preserve" xmlns="http://www.w3.org/2000/svg" xmlns:xlink="http://www.w3.org/1999/xlink"><style type="text/css">
	.st0{fill:#1E1E1E;}
	.st1{fill:#464646;stroke:#21759B;stroke-width:2;stroke-miterlimit:10;}
	.st2{fill:#FFFFFF;}
</style><g id="Edges"/><g id="Background_Bottom"><g><path class="st0" d="M492.3,443.1c0,34.2-27.7,61.9-61.9,61.9H80.7c-34.2,0-61.9-27.7-61.9-61.9V93.4c0-34.2,27.7-61.9,61.9-61.9    h349.7c34.2,0,61.9,27.7,61.9,61.9V443.1z"/></g></g><g id="Background"><path class="st1" d="M492.3,418.4c0,34.2-27.7,61.9-61.9,61.9H80.7c-34.2,0-61.9-27.7-61.9-61.9V68.6c0-34.2,27.7-61.9,61.9-61.9   h349.7c34.2,0,61.9,27.7,61.9,61.9V418.4z"/></g><g id="Symbol"><path class="st2" d="M379.8,281.5c-2.9-12.1-8.8-22.2-18.9-29.6c-2.1-1.5-3.1-3.5-3.3-6.1c-0.3-3.3-0.4-6.6-0.9-9.8   c-1.8-12.2-7.3-22.2-16.9-29.9c-2.7-2.2-5.8-3.9-8.8-6.3c1.8-0.7,3.3-1.3,4.7-2.1c1.4-0.8,2.7-1.8,3.4-3.3c0.8-1.8,2.1-2.7,3.9-3.3   c3.1-1.2,5.7-3.2,6.8-6.4c0.5-1.5,1.4-2.6,2.7-3.6c2.9-2.1,5.5-4.6,6.1-8.4c0.3-1.7,1-3,2.3-4.1c2-1.8,3.1-4.2,3.1-6.8   c0-1.8,0.5-3.2,1.6-4.6c1.8-2.4,2.8-5.1,2.2-8.1c-0.3-1.3,0.2-2.4,0.9-3.4c1.8-2.8,2.1-5.7,0.4-8.7c-0.8-1.5-0.8-2.8-0.3-4.4   c0.7-1.8,0.7-3.6,0.1-5.4c-1.5-4.4-5.1-5.5-9.1-5.9c-1.2-0.1-2.4-0.1-3.4-1c-3.1-3.1-7.1-3.6-11.2-3.7c-1.4-0.1-2.7-0.2-3.8-1.1   c-1.9-1.5-4.1-1.9-6.4-1.7c-1.5,0.1-2.8-0.2-4.1-1c-1.9-1.2-4.1-1.8-6.2-1.4c-3.3,0.7-6.4,1.1-9.6-0.3c-0.1-0.1-0.3,0-0.5,0   c-2.5-0.2-5,0.2-7.3,1.3c-1.1,0.6-2.3,0.6-3.5,0.4c-2.9-0.5-5.8-0.2-8.4,1.4c-1,0.6-2.1,0.9-3.2,0.8c-4.5-0.6-8,1.2-11,4.4   c-0.7,0.8-1.6,1.5-2.7,1.3c-2.4-0.4-4.2,0.9-5.9,2.2c-6,4.5-10.1,10.6-13.1,17.4c-0.9,2-2,3.9-2.1,6.1c-0.8-4-2.8-7.5-4.8-11   c-2.7-4.9-6.2-9.2-10.7-12.6c-1.3-1-2.7-2.2-4.5-2c-1.9,0.2-3.2-0.5-4.5-1.8c-2.6-2.7-5.7-4.2-9.5-3.9c-1.4,0.1-2.9,0.1-4.2-0.7   c-2.6-1.7-5.4-1.9-8.4-1.4c-1.3,0.2-2.6,0.2-3.8-0.5c-2.2-1.2-4.6-1.4-7-1.3c-0.7,0-1.6,0-2.1,0.3c-2.1,1.2-4.1,0.8-6.3,0.3   c-2.9-0.8-5.7-0.3-8.3,1.3c-1.1,0.7-2.3,1.1-3.7,0.9c-2.6-0.2-5,0.2-7,1.9c-0.9,0.7-1.8,0.8-2.9,0.8c-3.6,0-7.3,0.3-10.3,2.6   c-1.6,1.3-3.3,1.9-5.4,2.1c-6.9,0.7-9.8,5.1-8,11.8c0.3,1,0.5,2-0.1,3c-2.1,3.3-1.7,6.6,0.3,9.8c0.6,0.9,1,1.8,0.8,3   c-0.7,3.4,0.6,6.2,2.5,8.8c0.7,0.9,1.3,1.8,1.3,3c-0.2,3.6,1.3,6.4,3.8,8.7c0.7,0.6,1.2,1.3,1.3,2.2c0.4,4.1,2.8,6.9,6,9.2   c1.1,0.7,2.2,1.4,2.6,2.8c1.4,4.2,4.4,6.6,8.4,8c1.1,0.4,1.9,1.1,2.4,2.2c1.1,2.6,3.3,4,5.9,5c0.8,0.3,1.8,0.2,2.3,1.1   c-0.1,0.2-0.2,0.3-0.3,0.4c-0.7,0.5-1.5,0.9-2.3,1.4c-5.8,3.6-10.8,8.1-14.9,13.6c-6.5,8.9-8.6,19.3-9,30.1   c-0.1,2.9-1.2,5.1-3.5,6.8c-7.2,5.1-12.3,12-15.8,20c-0.6,1.5-3.3,7.5-3.7,15.8c-0.1,2.1,0,3.9,0,5.1c0,0.5,0.1,1.2,0.2,2   c1.3,10.2,4.8,17.6,6.2,19.5c4.5,6.1,7.4,12.7,9.2,19.9c0.5,1.9,1.2,3.7,1.9,5.5c0.8,2.1,1.5,4.2,1.9,6.5c0.7,3.9,1.8,7.7,3.4,11.3   c5.7,12.8,15,21.9,27.6,27.7c1.6,0.7,3.1,1.6,4.6,2.6c6.5,4.6,13.1,9.1,20.5,12.3c4.4,1.9,8.8,3.7,12.5,7   c9.6,8.6,20.8,13.6,34,13.2c1,0,2,0,3,0c4.1,0,8.2-0.1,12.2-1.3c8.6-2.4,16.2-6.6,22.7-12.8c1.9-1.8,4-3.1,6.5-4.1   c8.6-3.4,16.6-7.9,24-13.3c1.9-1.4,3.8-2.7,5.9-3.7c14-6.3,23.7-16.7,29-31.1c2.1-5.7,2.6-12,5.1-17.6c1.6-3.6,2.6-7.4,3.5-11.3   c0.4-1.6,1-3,2-4.3c4.5-5.5,7.8-11.6,9.7-18.4c0.9-3.1,0.7-6.3,1.3-9.5c0-1.1,0-2.3,0-3.4C380.1,287.1,380.5,284.2,379.8,281.5z    M335.1,219.3c6.2,7.8,8.3,16.9,8.3,26.6c0,2.1-1.1,2.8-3.3,2.2c-2.4-0.6-4.5-1.7-6.6-3c-14-8.9-26.6-19.5-37.5-32   c-1.3-1.5-2.4-3-3.2-4.8c-0.6-1.5-0.4-2.6,1.6-2.9c2.8-0.3,5.6-0.7,9.7-0.7C315.5,205.2,326.8,209,335.1,219.3z M331.9,277.1   c0,15.5-9,27.2-23.5,29.8c-9.6,1.7-18.4-0.8-26.2-6.5c-11.8-8.6-18.3-20.1-18.1-34.9c0.2-20.2,17.7-33.3,37.2-28.1   C318.9,242.1,331.9,259,331.9,277.1z M264.6,154.5c1.2-10.3,6.9-18.3,13.8-25.7c1.8,4.6,1.8,4.6,5,1.1c2.1-2.3,4.2-4.6,6.7-6.7   c0.5,1.4-0.2,2.8,0.6,3.9c0.7,1.1,1.2,1.6,2.2,0.3c2.1-2.6,4.6-4.7,7.5-6.3c0.6,1-0.2,1.7,0,2.4c0.3,1,0.6,2,1.5,2.3   c0.7,0.3,1.2-0.6,1.7-1c2.1-1.8,4.3-3.4,6.8-4.6c0.5-0.3,1.1-0.9,1.7-0.3c0.6,0.5-0.3,1-0.4,1.5c-0.1,0.3-0.3,0.6-0.3,0.9   c-0.1,0.7-0.1,1.5,0.5,2c0.7,0.6,1.2-0.1,1.7-0.4c3.1-1.9,6.3-3.1,9.8-3.9c0.6-0.1,1.2-0.5,1.9,0.1c-0.8,0.9-1.6,1.7-2.4,2.6   c-0.4,0.5-0.6,1.1-0.2,1.8c0.5,0.8,1.1,0.3,1.7,0.1c2.7-0.9,5.5-1.7,8.4-2.2c0.8-0.2,1.7-0.5,2.7,0c-0.6,0.8-1.2,1.5-1.8,2.3   c-0.4,0.6-0.5,1.2-0.1,1.8c0.5,0.7,1.1,0.4,1.7,0.2c3.8-1.1,7.6-2,11.6-1.7c0.9,0.1,1.9,0,2.8,0.8c-1,1.1-2,2.1-3.4,3.6   c5,0,9.5,0,14.6,0c-2.2,3.4-4.1,6.1-5.2,9.4c-0.6,1.7-0.3,2.4,1.6,2.2c1.2-0.1,2.4,0,3.8,0c-0.6,2.1-2,3.5-3.4,4.8   c-0.9,0.8-1.8,1.6-2.7,2.4c-0.8,0.7-2.4,1.3-1.9,2.5c0.6,1.2,2.2,1,3.5,0.8c0.8-0.1,1.5-0.3,2.6-0.6c-1.4,2.8-3.4,4.7-5.5,6.6   c-0.7,0.6-1.4,1.2-1.9,1.8c-0.6,0.6-1.9,1.1-1.5,1.9c0.4,1,1.7,0.5,2.6,0.6c0.7,0.1,1.4,0,2.4,0c-3.2,3.7-7,6.2-10.9,9   c1.9,0.8,3.6,0.8,5.7,1c-4,4-9.1,5.8-13.6,8.4c1.5,1.5,3.3,1.2,5.1,1.3c-0.4,1.2-1.5,1.4-2.4,1.8c-3,1.5-6.3,2.5-9.5,3.5   c-0.6,0.2-1.7,0.1-1.8,0.9c-0.1,0.9,0.9,1.2,1.6,1.6c0.5,0.2,1,0.4,1.8,0.7c-3.6,2.1-7.3,1.9-10.9,2.4c-1.1,0.1-2.2,0.2-3.4,0.3   c-1.7,0.2-1.9,1-0.7,2.1c0.7,0.6,1.5,1.1,2.6,2c-11.8,0.1-22.9-0.8-32.2-8.4c-2.9-2.4-4.9-5.5-6.3-9c-0.6-1.6-0.4-2.6,0.8-3.8   c7.1-7.1,15.2-13,23.6-18.4c8.5-5.5,17.4-10.4,26.3-15.2v0c-0.2-0.2-0.4-0.3-0.5-0.5c-16.5,5.7-32.1,13.3-46.5,23.2   c-2.6,1.8-5.2,3.8-7.7,5.8c-1.2,0.9-2,1.1-3.4,0.3C266.8,167.6,263.7,161.9,264.6,154.5z M257.4,146.5   C257.7,146.3,257.4,146.8,257.4,146.5C257.3,146.5,257.3,146.5,257.4,146.5C257.3,146.5,257.4,146.5,257.4,146.5z M285.5,210   c6.4,6.5,5.3,14.1-2.3,19.1c-2,1.3-4,2.3-6.2,3.1c-6.2,2.2-12.7,2.9-19.8,3c-8.9-0.3-18.1-1.8-26.1-7.6c-0.3-0.2-0.5-0.4-0.8-0.6   c-7.1-5.8-7.5-11.9-0.8-18.1C246.7,192.6,271.4,195.5,285.5,210z M172.7,181.7c2.3-0.1,4.2,0.1,5.7-1.3c-4.5-2.6-9.5-4.4-13.5-8.3   c2-0.3,3.6-0.5,5.2-0.7c-3.6-3.1-7.4-5.7-10.9-9.5c1.7,0,2.9,0,4,0c0.5,0,1.1,0,1.2-0.5c0.2-0.5-0.4-0.8-0.7-1.2   c-2.3-2.2-4.7-4.2-6.7-6.6c-0.5-0.6-0.9-1.3-1.5-2.3c1.8-0.3,3.2,0.7,4.7,0.2c0.6-0.2,1.4-0.2,1.5-0.9c0.1-0.6-0.5-1-0.9-1.3   c-2.1-1.9-4.4-3.5-6.1-5.8c-0.5-0.7-0.9-1.5-1.5-2.4c1.6,0,2.9-0.1,4.2,0c1.6,0.1,2-0.4,1.5-2c-1.1-3.2-2.8-6.1-5.2-9.4   c4.9,0,9.4,0,13.9,0c0.1-0.2,0.1-0.4,0.2-0.7c-1-1-1.9-2-3.1-3.3c2.8-1,5.5-0.8,8.1-0.4c2.1,0.3,4.1,0.9,6.1,1.4   c0.7,0.2,1.3,0.7,2-0.1c0.6-0.8,0.2-1.6-0.3-2.2c-0.5-0.6-1.1-1.2-1.7-1.7v0l0,0c-0.4-0.1-0.9-0.4-0.5-0.8c0.4-0.4,1-0.2,1.5,0.2   c3.4,0.5,6.8,1.4,10.1,2.5c0.6,0.2,1.4,0.9,1.9-0.1c0.4-0.7,0.1-1.4-0.4-2c-0.7-1-1.4-1.9-1.9-2.7c3.3,0.2,6.7,1.7,10.2,3.4   c0.9,0.5,1.9,2.2,3,0.9c1.3-1.4,0.1-2.8-0.9-4c-0.2-0.2-0.3-0.4-0.8-0.9c2.8,0.5,4.7,1.9,6.7,3.1c0.9,0.6,1.8,1.4,2.7,2   c0.8,0.5,1.5,2,2.5,1.4c1.3-0.8,1.7-2.3,1.1-3.9c-0.1-0.3-0.1-0.6-0.2-1.1c3.1,1.8,5.6,3.8,7.8,6.3c0.4,0.4,0.6,1.4,1.4,1.1   c0.8-0.2,1.2-1.1,1.3-1.9c0.1-1,0-1.9,0-3.3c4,2.9,6.7,6.8,10,10.1c1.3-1,1.2-2.6,1.8-4c0.2,0,0.4,0,0.6,0.2   c6.8,7,11.9,14.9,13.5,24.8c1.1,7.3-2.4,14-9,17.4c-1.2,0.6-1.9,0.2-2.8-0.5c-15.7-12.5-33.4-21.4-52.1-28.4   c-1.1-0.4-2.2-0.9-3.4-0.6c9,5,18.2,9.9,26.8,15.5c8.3,5.4,16.3,11.2,23.4,18.2c1.5,1.4,1.6,2.7,0.9,4.5c-2.5,6.3-7.2,10.4-13.2,13   c-7.8,3.4-16.1,4.2-24.6,3.9c0-0.2-0.1-0.4,0-0.5c1.1-0.8,3-1.6,2.6-2.8c-0.4-1.3-2.4-1-3.8-1.1c-3.9-0.4-7.8-0.4-11.5-2.2   c0.1-0.3,0.2-0.5,0.3-0.5c1.2-0.4,2.8-0.7,2.8-2.1c0-0.7-1.7-0.8-2.7-1.1C180.5,185.5,176.6,184.5,172.7,181.7z M188.8,208.2   c8.8-4.3,18.1-5,27.8-3.6c2.2,0.3,2.3,1.3,1.6,3c-0.9,2.1-2.3,3.9-3.8,5.5c-11.1,12.2-23.5,22.9-37.6,31.5   c-1.4,0.8-2.8,1.5-4.3,2.1c-3.7,1.5-4.8,0.7-4.8-3.7C168.3,227.8,174.3,215.4,188.8,208.2z M153.8,316c-5.5-5.4-8.3-12.2-9.3-19.7   c-1.6-11.2,1-21.4,8.6-30.1c2.6-3,5.7-5.4,9.1-7.5c2.4-1.4,4.7-0.9,6.2,1.5c1.6,2.4,2.1,5.2,2.5,8c0.3,2.4,0.4,4.8,0.5,6.6   c-0.4,11.4-1.9,22-5.7,32.3c-1.1,3-2.4,6-4.6,8.5C158.7,318.5,156.4,318.6,153.8,316z M215.2,370.6c-1.3,5.6-5.2,8.4-12.3,8.6   c-9,0.2-16.8-3.3-23.7-8.8c-10.9-8.7-15.7-20.3-16.3-33.8c-0.1-2.2,0.2-4.5,0.7-6.7c1.8-7.8,6.5-11,15-9.7c6.9,1,12.6,4.7,17.9,9   c9.7,7.8,16.2,17.5,18.6,29.9c0.4,2.1,0.6,4.3,0.9,6.4C216,367.1,215.6,368.9,215.2,370.6z M219.2,308.1   c-20.1,4.8-36.8-8.5-36.8-29.4c0-19.8,15.8-38,35.2-40.5c16.3-2.2,30.6,9.1,32.5,25.7C252.3,283.5,238.3,303.5,219.2,308.1z    M290.6,392.8c-1.9,3.3-4.7,5.9-7.7,8.3c-17.7,13.7-40,12.6-56.3-2.8c-0.8-0.8-1.5-1.6-2.3-2.5c-3.4-4.1-3.1-7,1.3-10.1   c5.3-3.7,11.5-5.2,17.8-6.5c5.1-1,10.2-1.6,13.8-1.5c9.7,0,17.6,1,25.2,3.8c2.4,0.9,4.8,1.9,6.8,3.6   C292.1,387.6,292.5,389.6,290.6,392.8z M278.3,362c-6.3,3.9-13.2,5.9-20.6,5.8c-12-0.3-22.1-4.6-29.5-14.3   c-9.7-12.8-7.7-30.4,4.4-41.4c13.9-12.7,37-12.6,50.7,0.2C298.9,326.6,296.5,350.6,278.3,362z M316.4,379.5   c-3.3,0.6-6.7,0.7-10.1,0.1c-6.9-1.3-10.2-5.3-10.2-13c0-9.6,3.1-18.4,8-26.4c5.6-9.2,13.4-16.4,22.5-22.1c3.2-2,6.6-3.3,10.5-3.3   c4.6,0,8,1.9,10,6.2c2.5,5.4,3.5,11.2,3.5,18C351.6,359.8,331.8,376.9,316.4,379.5z M358.8,313.6c-3.9,4.7-6.8,4.5-10.1-0.7   c-3.6-5.7-5.2-12.1-6.6-18.5c-1.7-8-2.4-16.1-2-24.2c0.2-3.2,0.6-6.4,2-9.4c1.8-3.9,4.4-4.7,7.9-2.4c11.4,7.3,16.9,17.9,17.3,31.1   C366.9,298.6,364.6,306.7,358.8,313.6z"/></g></svg>